<mxfile host="app.diagrams.net" modified="2022-10-21T16:58:16.447Z" agent="5.0 (Macintosh; Intel Mac OS X 10_15_7) AppleWebKit/537.36 (KHTML, like Gecko) Chrome/106.0.0.0 Safari/537.36" etag="rcHp7iPeQfbqj0vQ5zE4" version="20.3.5" type="github">
  <diagram id="cunmrRQe3pm6SeLoBSLd" name="Page-1">
    <mxGraphModel dx="806" dy="1204" grid="1" gridSize="10" guides="1" tooltips="1" connect="1" arrows="1" fold="1" page="1" pageScale="1" pageWidth="850" pageHeight="1100" math="0" shadow="0">
      <root>
        <mxCell id="0" />
        <mxCell id="1" parent="0" />
        <mxCell id="KL4kwilNAHB5f6T94Mk6-1" value="&lt;font style=&quot;font-size: 17px;&quot;&gt;Resources&lt;/font&gt;" style="rounded=0;whiteSpace=wrap;html=1;" vertex="1" parent="1">
          <mxGeometry x="50" y="980" width="110" height="50" as="geometry" />
        </mxCell>
        <mxCell id="KL4kwilNAHB5f6T94Mk6-4" value="&lt;ul style=&quot;text-align: left; font-size: 15px;&quot;&gt;&lt;li style=&quot;&quot;&gt;&lt;span style=&quot;color: rgb(51, 51, 51); font-family: -apple-system, &amp;quot;system-ui&amp;quot;, &amp;quot;Segoe UI&amp;quot;, Ubuntu, sans-serif, &amp;quot;Apple Color Emoji&amp;quot;, &amp;quot;Segoe UI Emoji&amp;quot;, &amp;quot;Segoe UI Symbol&amp;quot;, &amp;quot;Noto Color Emoji&amp;quot;; background-color: rgb(255, 255, 255);&quot;&gt;&lt;font style=&quot;font-size: 15px;&quot;&gt;Pointer to a &lt;b&gt;machine/s&lt;/b&gt; that has the CloudBees CD/RO &lt;b&gt;agent installed&lt;/b&gt;&amp;nbsp;--&amp;gt;&amp;nbsp;&lt;/font&gt;&lt;/span&gt;where the steps are run&lt;/li&gt;&lt;li style=&quot;&quot;&gt;&lt;span style=&quot;color: rgb(51, 51, 51); font-family: -apple-system, &amp;quot;system-ui&amp;quot;, &amp;quot;Segoe UI&amp;quot;, Ubuntu, sans-serif, &amp;quot;Apple Color Emoji&amp;quot;, &amp;quot;Segoe UI Emoji&amp;quot;, &amp;quot;Segoe UI Symbol&amp;quot;, &amp;quot;Noto Color Emoji&amp;quot;; background-color: rgb(255, 255, 255);&quot;&gt;Resource could be 1 machine or multiple (Pool)&lt;/span&gt;&lt;/li&gt;&lt;li style=&quot;&quot;&gt;&lt;span style=&quot;color: rgb(51, 51, 51); font-family: -apple-system, &amp;quot;system-ui&amp;quot;, &amp;quot;Segoe UI&amp;quot;, Ubuntu, sans-serif, &amp;quot;Apple Color Emoji&amp;quot;, &amp;quot;Segoe UI Emoji&amp;quot;, &amp;quot;Segoe UI Symbol&amp;quot;, &amp;quot;Noto Color Emoji&amp;quot;; background-color: rgb(255, 255, 255);&quot;&gt;Link between the system/host that CD/RO uses to perform a tasks on and the environments used&lt;/span&gt;&lt;br&gt;&lt;/li&gt;&lt;li style=&quot;&quot;&gt;&lt;span style=&quot;color: rgb(51, 51, 51); font-family: -apple-system, &amp;quot;system-ui&amp;quot;, &amp;quot;Segoe UI&amp;quot;, Ubuntu, sans-serif, &amp;quot;Apple Color Emoji&amp;quot;, &amp;quot;Segoe UI Emoji&amp;quot;, &amp;quot;Segoe UI Symbol&amp;quot;, &amp;quot;Noto Color Emoji&amp;quot;; background-color: rgb(255, 255, 255);&quot;&gt;Access:&amp;nbsp;&lt;/span&gt;&lt;span style=&quot;box-sizing: border-box; color: rgb(51, 51, 51); font-family: -apple-system, &amp;quot;system-ui&amp;quot;, &amp;quot;Segoe UI&amp;quot;, Ubuntu, sans-serif, &amp;quot;Apple Color Emoji&amp;quot;, &amp;quot;Segoe UI Emoji&amp;quot;, &amp;quot;Segoe UI Symbol&amp;quot;, &amp;quot;Noto Color Emoji&amp;quot;; font-size: 16px; background-color: rgb(255, 255, 255);&quot; class=&quot;menu&quot;&gt;DevOps Essentials &amp;gt;&lt;/span&gt;&lt;span style=&quot;color: rgb(51, 51, 51); font-family: -apple-system, &amp;quot;system-ui&amp;quot;, &amp;quot;Segoe UI&amp;quot;, Ubuntu, sans-serif, &amp;quot;Apple Color Emoji&amp;quot;, &amp;quot;Segoe UI Emoji&amp;quot;, &amp;quot;Segoe UI Symbol&amp;quot;, &amp;quot;Noto Color Emoji&amp;quot;; font-size: 16px; background-color: rgb(255, 255, 255);&quot;&gt;&amp;nbsp;&lt;/span&gt;&lt;span style=&quot;box-sizing: border-box; color: rgb(51, 51, 51); font-family: -apple-system, &amp;quot;system-ui&amp;quot;, &amp;quot;Segoe UI&amp;quot;, Ubuntu, sans-serif, &amp;quot;Apple Color Emoji&amp;quot;, &amp;quot;Segoe UI Emoji&amp;quot;, &amp;quot;Segoe UI Symbol&amp;quot;, &amp;quot;Noto Color Emoji&amp;quot;; font-size: 16px; background-color: rgb(255, 255, 255);&quot; class=&quot;menuitem&quot;&gt;Resources&lt;/span&gt;&lt;/li&gt;&lt;/ul&gt;" style="rounded=0;whiteSpace=wrap;html=1;fontSize=14;" vertex="1" parent="1">
          <mxGeometry x="50" y="1030" width="410" height="170" as="geometry" />
        </mxCell>
        <mxCell id="KL4kwilNAHB5f6T94Mk6-7" value="&lt;font style=&quot;font-size: 17px;&quot;&gt;Service Catalog&lt;br&gt;&lt;/font&gt;" style="rounded=0;whiteSpace=wrap;html=1;" vertex="1" parent="1">
          <mxGeometry x="990" y="480" width="150" height="50" as="geometry" />
        </mxCell>
        <mxCell id="KL4kwilNAHB5f6T94Mk6-8" value="&lt;ul style=&quot;&quot;&gt;&lt;li style=&quot;text-align: left;&quot;&gt;&lt;span style=&quot;background-color: rgb(255, 255, 255);&quot;&gt;&lt;font face=&quot;-apple-system, system-ui, Segoe UI, Ubuntu, sans-serif, Apple Color Emoji, Segoe UI Emoji, Segoe UI Symbol, Noto Color Emoji&quot; color=&quot;#333333&quot;&gt;Quick-start &lt;/font&gt;&lt;b style=&quot;color: rgb(51, 51, 51); font-family: -apple-system, &amp;quot;system-ui&amp;quot;, &amp;quot;Segoe UI&amp;quot;, Ubuntu, sans-serif, &amp;quot;Apple Color Emoji&amp;quot;, &amp;quot;Segoe UI Emoji&amp;quot;, &amp;quot;Segoe UI Symbol&amp;quot;, &amp;quot;Noto Color Emoji&amp;quot;; font-size: 15px;&quot;&gt;Templates&lt;/b&gt;&lt;font face=&quot;-apple-system, system-ui, Segoe UI, Ubuntu, sans-serif, Apple Color Emoji, Segoe UI Emoji, Segoe UI Symbol, Noto Color Emoji&quot; color=&quot;#333333&quot;&gt; for creating objects in CB-CD (application models, deployment processes, pipelines, releases, dashboards, reports)&lt;/font&gt;&lt;/span&gt;&lt;br style=&quot;font-size: 15px;&quot;&gt;&lt;/li&gt;&lt;li style=&quot;font-size: 15px; text-align: left;&quot;&gt;&lt;span style=&quot;color: rgb(51, 51, 51); font-family: -apple-system, &amp;quot;system-ui&amp;quot;, &amp;quot;Segoe UI&amp;quot;, Ubuntu, sans-serif, &amp;quot;Apple Color Emoji&amp;quot;, &amp;quot;Segoe UI Emoji&amp;quot;, &amp;quot;Segoe UI Symbol&amp;quot;, &amp;quot;Noto Color Emoji&amp;quot;; font-size: 15px; background-color: rgb(255, 255, 255);&quot;&gt;It can be customizable according to the Organization needs and controlled by ACL&lt;/span&gt;&lt;/li&gt;&lt;li style=&quot;font-size: 15px; text-align: left;&quot;&gt;&lt;span style=&quot;color: rgb(51, 51, 51); font-family: -apple-system, &amp;quot;system-ui&amp;quot;, &amp;quot;Segoe UI&amp;quot;, Ubuntu, sans-serif, &amp;quot;Apple Color Emoji&amp;quot;, &amp;quot;Segoe UI Emoji&amp;quot;, &amp;quot;Segoe UI Symbol&amp;quot;, &amp;quot;Noto Color Emoji&amp;quot;; font-size: 15px; background-color: rgb(255, 255, 255);&quot;&gt;Benefit:&amp;nbsp;&lt;/span&gt;&lt;/li&gt;&lt;ul style=&quot;font-size: 15px;&quot;&gt;&lt;li style=&quot;text-align: left; font-size: 15px;&quot;&gt;&lt;span style=&quot;color: rgb(51, 51, 51); font-family: -apple-system, &amp;quot;system-ui&amp;quot;, &amp;quot;Segoe UI&amp;quot;, Ubuntu, sans-serif, &amp;quot;Apple Color Emoji&amp;quot;, &amp;quot;Segoe UI Emoji&amp;quot;, &amp;quot;Segoe UI Symbol&amp;quot;, &amp;quot;Noto Color Emoji&amp;quot;; font-size: 15px; background-color: rgb(255, 255, 255);&quot;&gt;“head-start” : Increase Onboarding and Adoption&lt;/span&gt;&lt;/li&gt;&lt;li style=&quot;text-align: left; font-size: 15px;&quot;&gt;&lt;span style=&quot;color: rgb(51, 51, 51); font-family: -apple-system, &amp;quot;system-ui&amp;quot;, &amp;quot;Segoe UI&amp;quot;, Ubuntu, sans-serif, &amp;quot;Apple Color Emoji&amp;quot;, &amp;quot;Segoe UI Emoji&amp;quot;, &amp;quot;Segoe UI Symbol&amp;quot;, &amp;quot;Noto Color Emoji&amp;quot;; font-size: 15px; background-color: rgb(255, 255, 255);&quot;&gt;Implementation of Best Practices&lt;/span&gt;&lt;/li&gt;&lt;/ul&gt;&lt;li style=&quot;text-align: left;&quot;&gt;&lt;font face=&quot;-apple-system, system-ui, Segoe UI, Ubuntu, sans-serif, Apple Color Emoji, Segoe UI Emoji, Segoe UI Symbol, Noto Color Emoji&quot; color=&quot;#333333&quot;&gt;Definition: DSL, Add-on (Plugin) or via Procedure. Also it can be included via Deployment Package Manager.&lt;/font&gt;&lt;/li&gt;&lt;/ul&gt;&lt;ul style=&quot;&quot;&gt;&lt;li style=&quot;text-align: left;&quot;&gt;Currently, the following catalogs are available out of the box.&lt;/li&gt;&lt;ul&gt;&lt;li style=&quot;text-align: left;&quot;&gt;&lt;span style=&quot;background-color: rgb(255, 255, 255); font-family: -apple-system, &amp;quot;system-ui&amp;quot;, &amp;quot;Segoe UI&amp;quot;, Ubuntu, sans-serif, &amp;quot;Apple Color Emoji&amp;quot;, &amp;quot;Segoe UI Emoji&amp;quot;, &amp;quot;Segoe UI Symbol&amp;quot;, &amp;quot;Noto Color Emoji&amp;quot;; font-size: 16px; color: rgb(51, 51, 51);&quot;&gt;Applications – WebLogic, WebSphere, JBoss, etc.&lt;/span&gt;&lt;/li&gt;&lt;li style=&quot;text-align: left;&quot;&gt;&lt;span style=&quot;background-color: rgb(255, 255, 255); font-family: -apple-system, &amp;quot;system-ui&amp;quot;, &amp;quot;Segoe UI&amp;quot;, Ubuntu, sans-serif, &amp;quot;Apple Color Emoji&amp;quot;, &amp;quot;Segoe UI Emoji&amp;quot;, &amp;quot;Segoe UI Symbol&amp;quot;, &amp;quot;Noto Color Emoji&amp;quot;; font-size: 16px; color: rgb(51, 51, 51);&quot;&gt;Cloud Provisioning – AWS, Azure&lt;/span&gt;&lt;/li&gt;&lt;li style=&quot;text-align: left;&quot;&gt;&lt;span style=&quot;background-color: rgb(255, 255, 255); font-family: -apple-system, &amp;quot;system-ui&amp;quot;, &amp;quot;Segoe UI&amp;quot;, Ubuntu, sans-serif, &amp;quot;Apple Color Emoji&amp;quot;, &amp;quot;Segoe UI Emoji&amp;quot;, &amp;quot;Segoe UI Symbol&amp;quot;, &amp;quot;Noto Color Emoji&amp;quot;; font-size: 16px; color: rgb(51, 51, 51);&quot;&gt;Containers – Kubernetes, Docker, ECS, etc.&lt;/span&gt;&lt;/li&gt;&lt;li style=&quot;text-align: left;&quot;&gt;&lt;span style=&quot;background-color: rgb(255, 255, 255); font-family: -apple-system, &amp;quot;system-ui&amp;quot;, &amp;quot;Segoe UI&amp;quot;, Ubuntu, sans-serif, &amp;quot;Apple Color Emoji&amp;quot;, &amp;quot;Segoe UI Emoji&amp;quot;, &amp;quot;Segoe UI Symbol&amp;quot;, &amp;quot;Noto Color Emoji&amp;quot;; font-size: 16px; color: rgb(51, 51, 51);&quot;&gt;DSL - Domain specific languages for automation as code.&lt;/span&gt;&lt;/li&gt;&lt;li style=&quot;text-align: left;&quot;&gt;&lt;span style=&quot;background-color: rgb(255, 255, 255); font-family: -apple-system, &amp;quot;system-ui&amp;quot;, &amp;quot;Segoe UI&amp;quot;, Ubuntu, sans-serif, &amp;quot;Apple Color Emoji&amp;quot;, &amp;quot;Segoe UI Emoji&amp;quot;, &amp;quot;Segoe UI Symbol&amp;quot;, &amp;quot;Noto Color Emoji&amp;quot;; font-size: 16px; color: rgb(51, 51, 51);&quot;&gt;Pipeline – CloudBees CD/RO pipelines&lt;/span&gt;&lt;/li&gt;&lt;li style=&quot;text-align: left;&quot;&gt;&lt;span style=&quot;background-color: rgb(255, 255, 255); font-family: -apple-system, &amp;quot;system-ui&amp;quot;, &amp;quot;Segoe UI&amp;quot;, Ubuntu, sans-serif, &amp;quot;Apple Color Emoji&amp;quot;, &amp;quot;Segoe UI Emoji&amp;quot;, &amp;quot;Segoe UI Symbol&amp;quot;, &amp;quot;Noto Color Emoji&amp;quot;; font-size: 16px; color: rgb(51, 51, 51);&quot;&gt;Utility – Artifact usage, Log collection&lt;/span&gt;&lt;/li&gt;&lt;li style=&quot;text-align: left;&quot;&gt;&lt;span style=&quot;background-color: rgb(255, 255, 255); font-family: -apple-system, &amp;quot;system-ui&amp;quot;, &amp;quot;Segoe UI&amp;quot;, Ubuntu, sans-serif, &amp;quot;Apple Color Emoji&amp;quot;, &amp;quot;Segoe UI Emoji&amp;quot;, &amp;quot;Segoe UI Symbol&amp;quot;, &amp;quot;Noto Color Emoji&amp;quot;; font-size: 16px; color: rgb(51, 51, 51);&quot;&gt;Training - Samples and tutorials for learning&lt;/span&gt;&lt;/li&gt;&lt;li style=&quot;text-align: left;&quot;&gt;&lt;span style=&quot;background-color: rgb(255, 255, 255); font-family: -apple-system, &amp;quot;system-ui&amp;quot;, &amp;quot;Segoe UI&amp;quot;, Ubuntu, sans-serif, &amp;quot;Apple Color Emoji&amp;quot;, &amp;quot;Segoe UI Emoji&amp;quot;, &amp;quot;Segoe UI Symbol&amp;quot;, &amp;quot;Noto Color Emoji&amp;quot;; font-size: 16px; color: rgb(51, 51, 51);&quot;&gt;You can also create your own catalogs&lt;/span&gt;&lt;/li&gt;&lt;/ul&gt;&lt;/ul&gt;&lt;ul style=&quot;&quot;&gt;&lt;/ul&gt;&lt;ul style=&quot;&quot;&gt;&lt;/ul&gt;&lt;ul style=&quot;&quot;&gt;&lt;/ul&gt;&lt;ul style=&quot;&quot;&gt;&lt;/ul&gt;&lt;ul style=&quot;&quot;&gt;&lt;/ul&gt;&lt;ul style=&quot;&quot;&gt;&lt;/ul&gt;&lt;ul style=&quot;&quot;&gt;&lt;/ul&gt;&lt;ul style=&quot;&quot;&gt;&lt;li style=&quot;text-align: left;&quot;&gt;&lt;font face=&quot;-apple-system, system-ui, Segoe UI, Ubuntu, sans-serif, Apple Color Emoji, Segoe UI Emoji, Segoe UI Symbol, Noto Color Emoji&quot; color=&quot;#333333&quot;&gt;&lt;div style=&quot;box-sizing: border-box; margin: 14px 0px 0px; font-family: -apple-system, &amp;quot;system-ui&amp;quot;, &amp;quot;Segoe UI&amp;quot;, Ubuntu, sans-serif, &amp;quot;Apple Color Emoji&amp;quot;, &amp;quot;Segoe UI Emoji&amp;quot;, &amp;quot;Segoe UI Symbol&amp;quot;, &amp;quot;Noto Color Emoji&amp;quot;; font-size: 16px; background-color: rgb(255, 255, 255);&quot; class=&quot;paragraph&quot;&gt;&lt;/div&gt;&lt;/font&gt;&lt;/li&gt;&lt;/ul&gt;" style="rounded=0;whiteSpace=wrap;html=1;fontSize=15;" vertex="1" parent="1">
          <mxGeometry x="990" y="530" width="520" height="550" as="geometry" />
        </mxCell>
        <mxCell id="KL4kwilNAHB5f6T94Mk6-11" value="" style="endArrow=classic;html=1;rounded=0;fontSize=15;" edge="1" parent="1" source="KL4kwilNAHB5f6T94Mk6-6" target="KL4kwilNAHB5f6T94Mk6-10">
          <mxGeometry width="50" height="50" relative="1" as="geometry">
            <mxPoint x="530" y="640" as="sourcePoint" />
            <mxPoint x="580" y="590" as="targetPoint" />
          </mxGeometry>
        </mxCell>
        <mxCell id="KL4kwilNAHB5f6T94Mk6-12" value="RUN" style="edgeLabel;html=1;align=center;verticalAlign=middle;resizable=0;points=[];fontSize=15;" vertex="1" connectable="0" parent="KL4kwilNAHB5f6T94Mk6-11">
          <mxGeometry x="-0.0236" y="-2" relative="1" as="geometry">
            <mxPoint as="offset" />
          </mxGeometry>
        </mxCell>
        <mxCell id="KL4kwilNAHB5f6T94Mk6-13" value="" style="group" vertex="1" connectable="0" parent="1">
          <mxGeometry x="810" y="140" width="410" height="220" as="geometry" />
        </mxCell>
        <mxCell id="KL4kwilNAHB5f6T94Mk6-9" value="&lt;font style=&quot;font-size: 17px;&quot;&gt;Jobs&lt;br&gt;&lt;/font&gt;" style="rounded=0;whiteSpace=wrap;html=1;" vertex="1" parent="KL4kwilNAHB5f6T94Mk6-13">
          <mxGeometry width="110" height="50" as="geometry" />
        </mxCell>
        <mxCell id="KL4kwilNAHB5f6T94Mk6-10" value="&lt;ul style=&quot;text-align: left; font-size: 15px;&quot;&gt;&lt;li style=&quot;&quot;&gt;&lt;font face=&quot;-apple-system, system-ui, Segoe UI, Ubuntu, sans-serif, Apple Color Emoji, Segoe UI Emoji, Segoe UI Symbol, Noto Color Emoji&quot; color=&quot;#333333&quot;&gt;&lt;span style=&quot;background-color: rgb(255, 255, 255);&quot;&gt;&lt;b&gt;Unit of execution&lt;/b&gt; created by the run of a Pipeline,&amp;nbsp;&lt;/span&gt;&lt;/font&gt;procedure, task, or application process&lt;/li&gt;&lt;li style=&quot;&quot;&gt;Contains details of the action being executed including: status of the steps being run, the log output, and information on the resources that the steps are run run upon&lt;/li&gt;&lt;/ul&gt;" style="rounded=0;whiteSpace=wrap;html=1;fontSize=14;" vertex="1" parent="KL4kwilNAHB5f6T94Mk6-13">
          <mxGeometry y="50" width="410" height="170" as="geometry" />
        </mxCell>
        <mxCell id="KL4kwilNAHB5f6T94Mk6-14" value="" style="group" vertex="1" connectable="0" parent="1">
          <mxGeometry x="60" y="540" width="480" height="410" as="geometry" />
        </mxCell>
        <mxCell id="KL4kwilNAHB5f6T94Mk6-5" value="&lt;font style=&quot;font-size: 17px;&quot;&gt;Pipelines&lt;br&gt;&lt;/font&gt;" style="rounded=0;whiteSpace=wrap;html=1;" vertex="1" parent="KL4kwilNAHB5f6T94Mk6-14">
          <mxGeometry width="110" height="50" as="geometry" />
        </mxCell>
        <mxCell id="KL4kwilNAHB5f6T94Mk6-6" value="&lt;ul style=&quot;text-align: left; font-size: 15px;&quot;&gt;&lt;li style=&quot;&quot;&gt;It is an orchestrated set of&lt;/li&gt;&lt;ul&gt;&lt;li style=&quot;&quot;&gt;Stages (can be skipped and rerunnable): Phases within the SDLF of an app&lt;/li&gt;&lt;li style=&quot;&quot;&gt;Tasks (can be skipped): Individual Processes/Steps within the Stage&amp;nbsp;&lt;/li&gt;&lt;li style=&quot;&quot;&gt;Entry and Exit Gates (optional): Control the start and the end of a pipeline. It could be linked to an Approval&lt;/li&gt;&lt;ul&gt;&lt;li style=&quot;&quot;&gt;It requires to be successful to pass to the following gate&lt;/li&gt;&lt;li style=&quot;&quot;&gt;Types: Manual, Automatic and Complex&lt;/li&gt;&lt;/ul&gt;&lt;/ul&gt;&lt;li style=&quot;&quot;&gt;Benefits:&lt;/li&gt;&lt;ul&gt;&lt;li style=&quot;&quot;&gt;Visibility (Feedback): It reports its overall status, an completed task&lt;/li&gt;&lt;li style=&quot;&quot;&gt;Control: QA&lt;/li&gt;&lt;/ul&gt;&lt;li style=&quot;&quot;&gt;Types:&lt;/li&gt;&lt;ul&gt;&lt;li style=&quot;&quot;&gt;Deployment&lt;/li&gt;&lt;li style=&quot;&quot;&gt;Releases -&amp;gt; It adds Releases Scheduling (Calendar) and Tracking Functionality (Planned vs Actual Dashboard)&lt;/li&gt;&lt;/ul&gt;&lt;/ul&gt;" style="rounded=0;whiteSpace=wrap;html=1;fontSize=14;" vertex="1" parent="KL4kwilNAHB5f6T94Mk6-14">
          <mxGeometry y="50" width="480" height="360" as="geometry" />
        </mxCell>
        <mxCell id="KL4kwilNAHB5f6T94Mk6-15" value="" style="group" vertex="1" connectable="0" parent="1">
          <mxGeometry x="60" y="20" width="410" height="220" as="geometry" />
        </mxCell>
        <mxCell id="KL4kwilNAHB5f6T94Mk6-16" value="&lt;font style=&quot;font-size: 17px;&quot;&gt;Project&lt;br&gt;&lt;/font&gt;" style="rounded=0;whiteSpace=wrap;html=1;" vertex="1" parent="KL4kwilNAHB5f6T94Mk6-15">
          <mxGeometry width="110" height="50" as="geometry" />
        </mxCell>
        <mxCell id="KL4kwilNAHB5f6T94Mk6-17" value="&lt;ul style=&quot;text-align: left; font-size: 15px;&quot;&gt;&lt;li style=&quot;&quot;&gt;&lt;span style=&quot;color: rgb(51, 51, 51); font-family: -apple-system, &amp;quot;system-ui&amp;quot;, &amp;quot;Segoe UI&amp;quot;, Ubuntu, sans-serif, &amp;quot;Apple Color Emoji&amp;quot;, &amp;quot;Segoe UI Emoji&amp;quot;, &amp;quot;Segoe UI Symbol&amp;quot;, &amp;quot;Noto Color Emoji&amp;quot;; font-size: 16px; background-color: rgb(255, 255, 255);&quot;&gt;The&amp;nbsp;&lt;/span&gt;&lt;span style=&quot;box-sizing: border-box; font-weight: bolder; color: rgb(51, 51, 51); font-family: -apple-system, &amp;quot;system-ui&amp;quot;, &amp;quot;Segoe UI&amp;quot;, Ubuntu, sans-serif, &amp;quot;Apple Color Emoji&amp;quot;, &amp;quot;Segoe UI Emoji&amp;quot;, &amp;quot;Segoe UI Symbol&amp;quot;, &amp;quot;Noto Color Emoji&amp;quot;; font-size: 16px; background-color: rgb(255, 255, 255);&quot;&gt;Project&lt;/span&gt;&lt;span style=&quot;color: rgb(51, 51, 51); font-family: -apple-system, &amp;quot;system-ui&amp;quot;, &amp;quot;Segoe UI&amp;quot;, Ubuntu, sans-serif, &amp;quot;Apple Color Emoji&amp;quot;, &amp;quot;Segoe UI Emoji&amp;quot;, &amp;quot;Segoe UI Symbol&amp;quot;, &amp;quot;Noto Color Emoji&amp;quot;; font-size: 16px; background-color: rgb(255, 255, 255);&quot;&gt;&amp;nbsp;is the highest-level container in CloudBees CD/RO within which other structures are stored --&amp;gt;&amp;nbsp;&lt;/span&gt;Within projects, you can define procedures, schedules, workflows, properties, and credentials associated with the project&lt;br&gt;&lt;/li&gt;&lt;/ul&gt;" style="rounded=0;whiteSpace=wrap;html=1;fontSize=14;" vertex="1" parent="KL4kwilNAHB5f6T94Mk6-15">
          <mxGeometry y="50" width="410" height="170" as="geometry" />
        </mxCell>
        <mxCell id="KL4kwilNAHB5f6T94Mk6-18" value="" style="endArrow=classic;html=1;rounded=0;fontSize=15;" edge="1" parent="1" source="KL4kwilNAHB5f6T94Mk6-6" target="KL4kwilNAHB5f6T94Mk6-22">
          <mxGeometry width="50" height="50" relative="1" as="geometry">
            <mxPoint x="360" y="550" as="sourcePoint" />
            <mxPoint x="722.8421052631581" y="350" as="targetPoint" />
          </mxGeometry>
        </mxCell>
        <mxCell id="KL4kwilNAHB5f6T94Mk6-23" value="Text" style="edgeLabel;html=1;align=center;verticalAlign=middle;resizable=0;points=[];fontSize=15;" vertex="1" connectable="0" parent="KL4kwilNAHB5f6T94Mk6-18">
          <mxGeometry x="0.6627" y="3" relative="1" as="geometry">
            <mxPoint x="-6" y="-26" as="offset" />
          </mxGeometry>
        </mxCell>
        <mxCell id="KL4kwilNAHB5f6T94Mk6-24" value="CALL" style="edgeLabel;html=1;align=center;verticalAlign=middle;resizable=0;points=[];fontSize=15;" vertex="1" connectable="0" parent="KL4kwilNAHB5f6T94Mk6-18">
          <mxGeometry x="-0.157" y="-4" relative="1" as="geometry">
            <mxPoint as="offset" />
          </mxGeometry>
        </mxCell>
        <mxCell id="KL4kwilNAHB5f6T94Mk6-20" value="" style="group" vertex="1" connectable="0" parent="1">
          <mxGeometry x="250" y="280" width="410" height="220" as="geometry" />
        </mxCell>
        <mxCell id="KL4kwilNAHB5f6T94Mk6-21" value="&lt;font style=&quot;font-size: 17px;&quot;&gt;Procedures&lt;br&gt;&lt;/font&gt;" style="rounded=0;whiteSpace=wrap;html=1;" vertex="1" parent="KL4kwilNAHB5f6T94Mk6-20">
          <mxGeometry width="110" height="50" as="geometry" />
        </mxCell>
        <mxCell id="KL4kwilNAHB5f6T94Mk6-22" value="&lt;ul style=&quot;text-align: left; font-size: 15px;&quot;&gt;&lt;li style=&quot;&quot;&gt;&lt;span style=&quot;color: rgb(51, 51, 51); font-family: -apple-system, &amp;quot;system-ui&amp;quot;, &amp;quot;Segoe UI&amp;quot;, Ubuntu, sans-serif, &amp;quot;Apple Color Emoji&amp;quot;, &amp;quot;Segoe UI Emoji&amp;quot;, &amp;quot;Segoe UI Symbol&amp;quot;, &amp;quot;Noto Color Emoji&amp;quot;; font-size: 16px; background-color: rgb(255, 255, 255);&quot;&gt;Define the functions you wish to execute within a Project&lt;/span&gt;&lt;br&gt;&lt;/li&gt;&lt;li style=&quot;&quot;&gt;&lt;span style=&quot;color: rgb(51, 51, 51); font-family: -apple-system, &amp;quot;system-ui&amp;quot;, &amp;quot;Segoe UI&amp;quot;, Ubuntu, sans-serif, &amp;quot;Apple Color Emoji&amp;quot;, &amp;quot;Segoe UI Emoji&amp;quot;, &amp;quot;Segoe UI Symbol&amp;quot;, &amp;quot;Noto Color Emoji&amp;quot;; font-size: 16px; background-color: rgb(255, 255, 255);&quot;&gt;It can be called from within Application processes, pipelines, or directly executed&lt;br&gt;&lt;/span&gt;&lt;/li&gt;&lt;/ul&gt;" style="rounded=0;whiteSpace=wrap;html=1;fontSize=14;" vertex="1" parent="KL4kwilNAHB5f6T94Mk6-20">
          <mxGeometry y="50" width="410" height="170" as="geometry" />
        </mxCell>
        <mxCell id="KL4kwilNAHB5f6T94Mk6-25" value="" style="endArrow=classic;html=1;rounded=0;fontSize=15;exitX=0.439;exitY=0.011;exitDx=0;exitDy=0;exitPerimeter=0;" edge="1" parent="1" source="KL4kwilNAHB5f6T94Mk6-22" target="KL4kwilNAHB5f6T94Mk6-17">
          <mxGeometry width="50" height="50" relative="1" as="geometry">
            <mxPoint x="310" y="600" as="sourcePoint" />
            <mxPoint x="310" y="500" as="targetPoint" />
          </mxGeometry>
        </mxCell>
        <mxCell id="KL4kwilNAHB5f6T94Mk6-27" value="Stored in" style="edgeLabel;html=1;align=center;verticalAlign=middle;resizable=0;points=[];fontSize=15;" vertex="1" connectable="0" parent="KL4kwilNAHB5f6T94Mk6-25">
          <mxGeometry x="-0.157" y="-4" relative="1" as="geometry">
            <mxPoint as="offset" />
          </mxGeometry>
        </mxCell>
        <mxCell id="KL4kwilNAHB5f6T94Mk6-28" value="" style="endArrow=classic;html=1;rounded=0;fontSize=15;" edge="1" parent="1" source="KL4kwilNAHB5f6T94Mk6-6" target="KL4kwilNAHB5f6T94Mk6-17">
          <mxGeometry width="50" height="50" relative="1" as="geometry">
            <mxPoint x="439.99" y="341.8700000000001" as="sourcePoint" />
            <mxPoint x="354.2907219992085" y="250.00000000000023" as="targetPoint" />
          </mxGeometry>
        </mxCell>
        <mxCell id="KL4kwilNAHB5f6T94Mk6-29" value="Stored in" style="edgeLabel;html=1;align=center;verticalAlign=middle;resizable=0;points=[];fontSize=15;" vertex="1" connectable="0" parent="KL4kwilNAHB5f6T94Mk6-28">
          <mxGeometry x="-0.157" y="-4" relative="1" as="geometry">
            <mxPoint as="offset" />
          </mxGeometry>
        </mxCell>
      </root>
    </mxGraphModel>
  </diagram>
</mxfile>
